<?xml version="1.0" encoding="iso-8859-1"?>
<!-- Generator: Adobe Illustrator 19.0.0, SVG Export Plug-In . SVG Version: 6.00 Build 0)  -->
<svg version="1.1" id="Capa_1" xmlns="http://www.w3.org/2000/svg" xmlns:xlink="http://www.w3.org/1999/xlink" x="0px" y="0px"
	 viewBox="0 0 512 512" style="enable-background:new 0 0 512 512;" xml:space="preserve">
<polygon style="fill:#AA011A;" points="512,512 256,512 196,256 256,0 512,0 "/>
<rect style="fill:#D5011D;" width="256" height="512"/>
<g>
	<rect x="422" y="60" style="fill:#EFF6F9;" width="30" height="392"/>
	<polygon style="fill:#EFF6F9;" points="362,60 362,90.228 256,90.228 236,346.997 362,347 362,452 392,452 392,60 	"/>
</g>
<path style="fill:#FFFFFF;" d="M256,60h-30v100.361c0,9.555-8.447,20.346-17.724,22.64L90,212.245v-81.884H60V422h30v-30
	c0-24.816,20.187-45.006,45-45.006l31,0.001V422h30v-75.004l30,0.001V452h30V60z"/>
<g>
</g>
<g>
</g>
<g>
</g>
<g>
</g>
<g>
</g>
<g>
</g>
<g>
</g>
<g>
</g>
<g>
</g>
<g>
</g>
<g>
</g>
<g>
</g>
<g>
</g>
<g>
</g>
<g>
</g>
</svg>
