<svg width="24" height="24" viewBox="0 0 24 24" fill="none" xmlns="http://www.w3.org/2000/svg">
<path d="M22 19C22 19.5304 21.7893 20.0391 21.4142 20.4142C21.0391 20.7893 20.5304 21 20 21H4C3.46957 21 2.96086 20.7893 2.58579 20.4142C2.21071 20.0391 2 19.5304 2 19V8C2 6.9 2.9 6 4 6H7L9 3H15L17 6H20C20.5304 6 21.0391 6.21072 21.4142 6.58579C21.7893 6.96086 22 7.46957 22 8V19Z" stroke="white" stroke-width="2" stroke-linecap="round" stroke-linejoin="round"/>
<path d="M11.9998 17C14.2089 17 15.9998 15.2091 15.9998 13C15.9998 10.7909 14.2089 9 11.9998 9C9.79062 9 7.99976 10.7909 7.99976 13C7.99976 15.2091 9.79062 17 11.9998 17Z" stroke="white" stroke-width="2" stroke-linecap="round" stroke-linejoin="round"/>
</svg>
